M48
; DRILL file {KiCad 6.0.11+dfsg-1} date Вс 03 ноя 2024 11:43:14
; FORMAT={-:-/ absolute / metric / decimal}
; #@! TF.CreationDate,2024-11-03T11:43:14+03:00
; #@! TF.GenerationSoftware,Kicad,Pcbnew,6.0.11+dfsg-1
; #@! TF.FileFunction,Plated,1,2,PTH
FMAT,2
METRIC
; #@! TA.AperFunction,Plated,PTH,ViaDrill
T1C0.400
; #@! TA.AperFunction,Plated,PTH,ViaDrill
T2C0.700
; #@! TA.AperFunction,Plated,PTH,ComponentDrill
T3C0.700
%
G90
G05
T1
X2.96Y-1.12
X2.96Y-4.65
X2.96Y-13.57
X2.96Y-20.47
X6.84Y-12.835
X7.19Y-14.73
X7.22Y-16.12
X7.465Y-7.735
X8.24Y-5.085
X8.29Y-20.46
X8.48Y-14.73
X8.48Y-16.11
X8.815Y-1.085
X8.89Y-9.735
X9.24Y-19.01
X9.684Y-15.72
X10.42Y-6.39
X11.965Y-9.285
X13.034Y-14.98
X13.034Y-15.9
X13.034Y-16.82
X13.13Y-20.47
X14.76Y-1.12
X16.58Y-16.98
X17.55Y-9.66
X18.9Y-2.405
X18.9Y-4.855
X18.9Y-7.93
X18.9Y-10.99
X18.9Y-18.23
X18.9Y-20.48
X18.91Y-15.32
X20.72Y-15.76
X20.76Y-17.98
X21.0Y-3.42
X24.445Y-6.28
X24.67Y-3.94
X25.775Y-5.305
X25.99Y-17.16
X27.465Y-6.96
X32.16Y-18.96
X32.39Y-8.91
X34.517Y-15.072
X37.45Y-15.96
X37.45Y-18.16
X38.39Y-4.41
X39.1Y-20.56
X39.15Y-10.43
X40.615Y-13.085
X41.1Y-12.16
X43.09Y-15.985
X43.96Y-12.47
X44.79Y-2.56
X45.46Y-14.09
X45.59Y-6.28
X47.47Y-15.08
X47.7Y-9.69
X48.86Y-13.11
X49.78Y-11.33
X50.06Y-6.31
X50.14Y-2.56
X52.35Y-6.35
X54.0Y-17.6
X54.38Y-12.79
T2
X0.0Y0.0
X1.81Y-23.23
X56.38Y-23.24
X58.23Y0.0
T3
X4.2Y-11.36
X12.44Y-11.385
T0
M30
