M48
; DRILL file {KiCad 6.0.11+dfsg-1} date Сб 16 ноя 2024 12:59:25
; FORMAT={-:-/ absolute / metric / decimal}
; #@! TF.CreationDate,2024-11-16T12:59:25+03:00
; #@! TF.GenerationSoftware,Kicad,Pcbnew,6.0.11+dfsg-1
; #@! TF.FileFunction,Plated,1,2,PTH
FMAT,2
METRIC
; #@! TA.AperFunction,Plated,PTH,ViaDrill
T1C0.400
; #@! TA.AperFunction,Plated,PTH,ViaDrill
T2C0.700
; #@! TA.AperFunction,Plated,PTH,ComponentDrill
T3C0.700
%
G90
G05
T1
X3.86Y-13.58
X4.24Y-18.39
X5.89Y-7.14
X8.1Y-3.35
X8.18Y-7.1
X8.46Y-12.12
X9.38Y-13.9
X10.54Y-10.48
X10.77Y-15.87
X12.65Y-7.07
X12.78Y-14.88
X13.45Y-3.35
X14.28Y-13.26
X15.15Y-16.775
X17.14Y-12.95
X17.625Y-13.875
X19.09Y-11.22
X19.14Y-21.35
X19.85Y-5.2
X20.79Y-16.75
X20.79Y-18.95
X23.723Y-15.862
X25.85Y-9.7
X26.08Y-19.75
X30.775Y-7.75
X32.25Y-17.95
X32.36Y-6.21
X33.57Y-4.73
X33.795Y-7.07
X34.55Y-2.1
X35.85Y-8.09
X35.89Y-2.87
X37.27Y-4.03
X37.42Y-6.22
X39.33Y-16.11
X39.34Y-3.195
X39.34Y-5.645
X39.34Y-8.72
X39.34Y-11.78
X39.34Y-19.02
X39.34Y-21.27
X41.66Y-17.77
X43.48Y-1.91
X45.11Y-21.26
X45.206Y-15.77
X45.206Y-16.69
X45.206Y-17.61
X45.28Y-7.395
X46.26Y-10.11
X47.94Y-7.41
X48.556Y-16.51
X49.0Y-19.8
X49.32Y-10.24
X49.425Y-1.875
X49.76Y-15.52
X49.76Y-16.9
X49.93Y-11.92
X49.95Y-21.25
X50.775Y-8.525
X51.02Y-16.91
X51.05Y-15.52
X55.28Y-1.91
X55.28Y-5.44
X55.28Y-14.36
X55.28Y-21.26
T2
X1.0Y-21.83
X2.19Y-0.11
X56.26Y0.0
X56.28Y-22.94
T3
X45.8Y-12.175
X54.04Y-12.15
T0
M30
